<svg version="1.1" id="Layer_1" xmlns="http://www.w3.org/2000/svg" xmlns:xlink="http://www.w3.org/1999/xlink" x="0px" y="0px"
	width="100%" viewBox="0 0 864 752" enable-background="new 0 0 864 752" xml:space="preserve">
	<style>
		path{
			stroke: black;
		}
		@media (prefers-color-scheme: dark) {
			path{
				stroke: white;
			}
		}
	 </style>
	<path fill="#06b6d4" opacity="1.000000" stroke="none"
		d="
M229.464813,389.385559 
	C226.856613,380.419891 224.351685,371.845306 221.561615,362.294617 
	C218.652466,367.354736 217.911301,371.974884 216.725479,376.353088 
	C204.160583,422.744141 190.264252,468.753082 177.099472,514.971375 
	C175.030518,522.234985 175.028290,522.240601 167.213623,522.246399 
	C159.047562,522.252502 150.859695,521.881042 142.722977,522.368835 
	C137.112656,522.705261 135.029175,520.588074 133.642960,515.293274 
	C122.182472,471.518646 110.418510,427.823425 98.729332,384.108734 
	C93.229477,363.540619 87.684975,342.984497 82.183586,322.416779 
	C81.673882,320.511169 80.947449,318.617340 81.390244,315.672272 
	C88.366478,315.672272 95.451004,315.671173 102.535530,315.672516 
	C112.539230,315.674377 112.661301,315.645294 114.956329,325.026764 
	C128.150574,378.961334 141.280563,432.911591 154.443207,486.853882 
	C154.827499,488.428772 155.332336,489.974274 155.910324,491.982971 
	C157.888199,490.016693 158.064789,487.786285 158.613403,485.836975 
	C167.709137,453.518860 176.624725,421.149750 185.804092,388.855560 
	C192.302994,365.991608 199.204224,343.242218 205.751541,320.391724 
	C206.814728,316.681091 208.617416,315.398956 212.433899,315.591797 
	C218.584457,315.902740 224.776016,315.929596 230.923416,315.590240 
	C235.015945,315.364288 236.876251,316.911194 238.002182,320.741699 
	C244.335846,342.289551 251.022690,363.734192 257.282837,385.302887 
	C267.156036,419.320007 276.781769,453.408936 286.537628,487.460205 
	C286.898590,488.720154 287.526123,489.903748 288.378143,491.967590 
	C291.132324,485.197388 292.140045,478.738800 293.562958,472.456390 
	C305.094055,421.544739 317.896332,370.945374 330.629425,320.327820 
	C331.427094,317.156830 332.695740,315.504364 336.318542,315.603607 
	C344.769135,315.834991 353.230347,315.677399 362.177582,315.677399 
	C360.982056,324.852631 358.201202,332.863678 356.060120,340.991119 
	C343.439972,388.896057 330.645630,436.755066 317.914948,484.630890 
	C315.010162,495.554749 312.041687,506.462860 309.280304,517.423035 
	C308.417236,520.848633 306.857849,522.389160 303.105957,522.301819 
	C293.445343,522.076904 283.768158,522.007385 274.113281,522.336487 
	C269.466278,522.494812 267.357117,520.953491 266.061066,516.403015 
	C254.529678,475.916718 242.764786,435.496979 231.070267,395.057159 
	C230.561890,393.299194 230.068466,391.536896 229.464813,389.385559 
z" />
	<path fill="#06b6d4" opacity="1.000000" stroke="none"
		d="
M576.344238,435.055542 
	C573.401428,461.943970 564.407349,485.657013 544.484802,504.104279 
	C529.414185,518.058838 511.392761,525.437988 490.806488,526.333252 
	C476.895721,526.938293 463.248688,525.891052 450.063660,520.790833 
	C426.995209,511.867523 410.979095,495.590790 401.613953,473.125458 
	C386.344025,436.495544 386.330566,399.289978 402.091583,363.011841 
	C415.210083,332.816132 439.006104,315.461670 472.193237,311.568024 
	C491.048889,309.355804 508.979919,311.810333 525.983398,320.456482 
	C546.430054,330.853485 559.932617,347.379730 568.167419,368.440247 
	C576.507263,389.769104 578.789551,411.907990 576.344238,435.055542 
M483.517029,340.259308 
	C479.019623,340.201233 474.562897,340.432770 470.137482,341.406525 
	C453.059753,345.164185 439.928619,354.041534 432.460907,370.285950 
	C428.667236,378.538239 426.564819,387.287231 426.399902,396.316956 
	C426.123260,411.463501 426.026550,426.626923 426.433350,441.767670 
	C426.712280,452.148834 429.237091,462.188934 434.491608,471.293518 
	C448.019043,494.732758 476.926880,502.158325 502.793762,494.662476 
	C528.949890,487.082825 540.155090,467.139557 541.523743,441.391632 
	C542.326843,426.282623 541.943420,411.089630 541.574158,395.947052 
	C541.350525,386.774261 539.455078,377.740906 535.147705,369.510712 
	C524.469666,349.108002 506.907410,340.424561 483.517029,340.259308 
z" />
	<path fill="#06b6d4" opacity="1.000000" stroke="none"
		d="
M161.512863,596.997559 
	C169.338028,596.776367 176.839523,596.863403 184.329605,596.611572 
	C187.464127,596.506165 189.261292,598.233032 191.066788,600.206726 
	C204.590668,614.990845 219.156052,628.654358 235.206543,640.661743 
	C276.872864,671.832581 323.330994,691.880371 374.657715,700.701782 
	C398.582092,704.813599 422.720428,706.033691 446.810730,704.454163 
	C509.507996,700.343079 566.294006,679.401367 616.888977,642.074219 
	C633.412781,629.883484 648.652222,616.169312 662.295288,600.781982 
	C664.961731,597.774658 667.759033,596.435486 671.796082,596.597534 
	C678.846985,596.880493 685.917419,596.676331 692.979736,596.676331 
	C693.151611,597.112610 693.323547,597.548889 693.495422,597.985107 
	C689.112732,603.101440 684.934265,608.410583 680.314453,613.302979 
	C649.188293,646.265137 613.114014,672.405762 571.892517,691.345398 
	C541.473328,705.321960 509.709106,714.682190 476.537170,719.485413 
	C451.548431,723.103638 426.528412,724.287048 401.373871,722.253113 
	C348.124878,717.947449 298.241699,702.798096 252.065521,675.741211 
	C219.009186,656.371826 189.873138,632.295959 164.918228,603.213440 
	C163.407990,601.453369 160.813278,600.165588 161.512863,596.997559 
z" />
	<path fill="#06b6d4" opacity="1.000000" stroke="none"
		d="
M612.298950,83.639954 
	C640.642090,100.822762 683.460815,138.862793 693.526917,156.088867 
	C684.429810,156.088867 675.738159,156.245758 667.059570,155.977646 
	C664.911621,155.911285 663.617554,153.474380 662.179321,151.899933 
	C641.373779,129.124146 617.793823,109.741989 591.351257,93.851936 
	C557.762573,73.667526 521.724182,60.151516 483.130035,53.070396 
	C458.733490,48.594193 434.186066,47.255028 409.574677,48.511253 
	C373.272095,50.364223 338.216553,58.376705 304.636444,72.529289 
	C268.352448,87.821419 235.823792,108.774139 207.357925,136.083008 
	C201.700134,141.510834 196.308533,147.149719 191.035828,152.911377 
	C188.681854,155.483673 186.201843,156.507217 182.755219,156.404907 
	C175.526855,156.190353 168.287674,156.339798 161.052948,156.339798 
	C160.830811,155.873474 160.608688,155.407150 160.386551,154.940826 
	C164.605118,150.126617 168.686111,145.183334 173.063644,140.518311 
	C213.754654,97.154984 262.190094,65.777969 318.733337,47.237083 
	C343.428406,39.139412 368.748688,33.971664 394.714081,31.446964 
	C418.211761,29.162207 441.619385,29.161394 464.953735,31.859917 
	C513.983215,37.529980 560.046326,52.497173 602.643738,77.678902 
	C605.795227,79.541924 608.879456,81.518692 612.298950,83.639954 
z" />
	<path fill="#06b6d4" opacity="1.000000" stroke="none"
		d="
M628.715820,467.999939 
	C628.720032,389.694031 628.724365,311.888092 628.728943,234.082169 
	C628.729431,226.660690 628.730286,226.654419 636.072021,226.645218 
	C643.069519,226.636459 650.069031,226.741043 657.063599,226.598724 
	C660.318420,226.532501 661.516907,227.830170 661.407532,231.026520 
	C661.248169,235.685959 661.374084,240.355087 661.374268,245.020081 
	C661.378479,325.158478 661.380737,405.296906 661.387695,485.435303 
	C661.388306,492.843231 661.401978,492.836090 668.856018,492.839630 
	C675.020447,492.842590 681.185181,492.905426 687.349182,492.861389 
	C690.338623,492.840057 692.131775,493.906982 692.117310,497.174164 
	C692.086182,504.171295 692.110596,511.168640 692.106567,518.165894 
	C692.105286,520.413208 691.445129,522.188904 688.780701,522.161133 
	C676.816223,522.036377 664.761597,523.351562 652.934021,520.746216 
	C638.168152,517.493652 629.174377,505.938507 628.763184,489.990875 
	C628.578613,482.831604 628.721741,475.663879 628.715820,467.999939 
z" />
	<path fill="#06b6d4" opacity="1.000000" stroke="none"
		d="
M736.769531,408.000000 
	C736.767090,379.015686 736.882751,350.530457 736.653931,322.047974 
	C736.613098,316.967529 738.100952,315.289093 743.162415,315.573242 
	C750.136658,315.964752 757.159729,315.907471 764.141541,315.591736 
	C768.691589,315.385925 770.248352,316.881775 770.185364,321.516663 
	C769.954651,338.504181 770.079468,355.496521 770.075928,372.487061 
	C770.065918,419.960846 770.062744,467.434601 770.046021,514.908386 
	C770.043457,522.175781 770.016663,522.190247 762.926025,522.213745 
	C756.263123,522.235840 749.587463,521.973450 742.941223,522.308350 
	C738.044983,522.555176 736.696289,520.643860 736.714905,515.940674 
	C736.856628,480.127594 736.779114,444.313660 736.769531,408.000000 
z" />
	<path fill="#06b6d4" opacity="1.000000" stroke="none"
		d="
M768.869507,262.836304 
	C760.623169,269.563263 751.577271,269.973969 742.751160,266.057800 
	C732.246399,261.396820 733.386963,251.380157 733.764282,242.209625 
	C734.075684,234.642151 738.169861,229.306915 745.080078,227.462769 
	C750.598022,225.990219 756.303711,226.110077 761.859924,227.391129 
	C766.924194,228.558762 770.649902,231.775757 771.944275,236.809525 
	C774.219849,245.659027 775.130066,254.536285 768.869507,262.836304 
z" />
</svg>